PathFileType	4	(X/Y/Z)	C:/Users/beibeiliu/ov580/test_trc\sequence.22_training_dense_right.trc
DataRate	CameraRate	NumFrames	NumMarkers	Units	OrigDataRate	OrigDataStartFrame	OrigNumFrames
120	120	24	19	mm	120	1	324
Frame#	Time	ThumbCMC			ThumbMCP			ThumbIP			ThumbTip			IndexMCP			IndexPIP			IndexTip			MiddleMCP			MiddlePIP			MiddleTip			RingMCP			RingPIP			RingTip			PinkyMCP			PinkyPIP			PinkyTip			BackHand1			BackHand2			BackHand3	
		X0	Y0	Z0	X1	Y1	Z1	X2	Y2	Z2	X3	Y3	Z3	X4	Y4	Z4	X5	Y5	Z5	X6	Y6	Z6	X7	Y7	Z7	X8	Y8	Z8	X9	Y9	Z9	X10	Y10	Z10	X11	Y11	Z11	X12	Y12	Z12	X13	Y13	Z13	X14	Y14	Z14	X15	Y15	Z15	X16	Y16	Z16	X17	Y17	Z17	X18	Y18	Z18	
0	0	180.861	3.73358	41.5241	159.725	-9.41409	23.4915	149.073	-16.0757	3.46794	138.471	-20.4579	-10.0914	185.972	9.46846	-25.6397	180.542	2.60998	-50.0854	173.198	0.376009	-67.2351	210.463	4.13418	-31.7183	205.257	-0.189745	-54.6805	207.424	-7.17652	-79.765	226.815	-3.82897	-25.1024	228.053	-8.22714	-47.5123	231.61	-12.5526	-68.3573	243.193	-12.698	-11.4189	250.635	-16.781	-26.6923	259.818	-16.5955	-39.0662	227.585	9.30049	17.7712	228.25	16.6694	44.4291	203.789	21.0909	31.0664	
1	0.00833333	178.665	3.39518	36.4026	164.284	-10.3768	23.8404	150.754	-16.4932	1.67542	136.429	-21.2741	-6.62689	185.812	8.68506	-25.6144	178.625	4.58086	-49.6889	176.354	-1.22956	-71.1283	206.839	4.39033	-30.8503	204.414	-1.5263	-58.5083	207.282	-6.82691	-81.532	224.812	-3.1868	-27.6852	232.159	-9.46822	-44.1879	230.614	-12.0383	-67.9301	242.347	-13.0319	-11.0252	251.296	-17.2841	-27.9232	257.348	-16.7851	-44.3287	227.069	8.77679	17.7252	228.094	15.4359	43.8718	203.114	21.8707	27.6708	
2	0.0166667	178.165	2.95824	41.3495	164.975	-11.3952	20.8906	149.896	-16.7669	2.54496	139.251	-20.9587	-9.60057	186.383	7.85959	-26.4741	178.475	4.30005	-46.1789	177.424	-1.36883	-68.28	206.88	2.89248	-36.3453	204.385	-1.86737	-58.2757	207.833	-7.54562	-83.0328	227.672	-4.7833	-26.6145	228.252	-9.16643	-44.8393	231.198	-13.2702	-66.884	243.428	-12.4461	-13.0566	250.348	-18.4342	-26.2082	256.587	-17.0316	-41.0732	228.369	8.15805	16.0786	231.605	14.7379	40.4705	205.696	21.2489	28.6644	
3	0.025	177.463	2.59706	37.7433	162.98	-11.3034	23.1471	150.673	-16.9183	0.309808	137.16	-21.865	-10.5927	185.082	8.12152	-25.1441	178.693	2.40234	-50.9528	178.865	-2.82595	-70.586	211.48	1.72904	-34.7462	208.75	-3.83831	-59.822	210.525	-9.40044	-81.5816	226.9	-4.48822	-28.873	230.411	-10.1637	-49.2015	230.354	-14.0978	-68.0305	243.235	-13.3614	-12.1448	248.763	-18.5752	-25.2019	259.542	-18.0565	-44.5113	226.523	9.58188	15.4573	230.265	12.2982	42.9284	202.253	20.1843	24.7804	
4	0.0333333	176.856	2.9508	36.1392	164.353	-11.731	21.5693	151.09	-17.2823	1.30778	138.652	-22.6882	-12.2408	186.884	6.94309	-29.2553	179.517	3.20318	-48.2706	179.488	-4.06908	-69.8857	207.579	2.81648	-31.5519	206.78	-4.61224	-59.7276	207.803	-8.40506	-80.2398	226.158	-6.17037	-23.9847	227.832	-10.8545	-50.0331	231.235	-14.0522	-69.4954	244.019	-15.4049	-9.31802	250.914	-19.08	-29.5795	259.234	-19.9955	-45.0556	227.503	7.75073	18.5634	233.884	12.5681	42.3992	208.123	18.33	28.2006	
5	0.0416667	177.834	1.29181	35.1879	166.696	-13.0718	20.5626	154.291	-18.9604	4.79003	141.277	-23.3532	-9.72488	184.254	6.10869	-27.2758	183.454	0.177924	-50.7247	173.686	-3.36303	-72.3427	210.029	0.895671	-31.7762	209.552	-4.79471	-56.331	207.244	-9.13781	-78.4817	225.638	-6.73989	-27.5426	230.944	-11.8446	-46.4541	228.785	-15.1589	-65.6134	246.213	-16.9539	-12.3667	248.286	-19.3696	-26.6154	261.576	-19.6252	-45.0109	231.48	4.58969	15.8219	231.041	10.9645	39.7417	207.823	17.1705	24.3106	
6	0.05	180.272	0.379295	36.3552	163.264	-12.0194	22.4206	149.379	-17.7942	2.888	137.98	-23.3184	-8.09336	185.532	5.70942	-27.4344	178.328	1.39386	-50.2957	178.929	-4.64835	-71.0213	207.418	1.90658	-32.8415	207.06	-4.5111	-56.1342	207.684	-9.83719	-80.2125	229.608	-7.49125	-27.0376	231.645	-12.4364	-46.4978	231.965	-15.7196	-65.2901	243.009	-16.1923	-10.4241	252.172	-22.034	-27.5928	261.118	-20.7249	-45.4062	228.559	6.90875	18.7015	229.028	11.3863	42.2691	205.67	17.1653	25.4046	
7	0.0583333	179.236	0.83289	40.7843	163.993	-11.8145	21.9741	151.08	-17.2261	3.71529	137.851	-21.3677	-10.0859	183.876	7.76867	-27.4891	181.15	0.464335	-51.9059	176.365	-3.34979	-73.2747	209.312	0.827775	-34.3584	207.236	-4.60544	-57.5829	210.387	-10.8893	-84.1598	229.886	-8.0777	-27.5556	232.322	-12.611	-47.9003	228.758	-14.1966	-65.8352	243.194	-15.6229	-9.17967	248.3	-20.0988	-25.3708	260.692	-19.4543	-42.3495	228.272	7.99899	14.4424	230.341	12.1436	44.1768	204.131	19.1426	28.7045	
8	0.0666667	182.308	0.829463	35.8464	164.554	-11.5081	22.236	153.935	-16.4261	4.83434	139.408	-20.9256	-8.3255	186.259	7.80331	-28.4401	180.822	3.82313	-50.2729	178.686	-1.49369	-68.7974	210.815	2.44687	-32.9232	208.561	-4.52666	-59.7868	208.175	-9.05429	-78.3855	227.073	-5.21996	-23.8754	228.913	-10.9995	-45.403	230.18	-14.9896	-68.8723	245.143	-15.719	-10.802	248.254	-20.1029	-28.5703	260.021	-22.0636	-40.3335	233.014	7.00035	16.1985	233.798	10.3744	41.294	208.105	17.6099	29.8042	
9	0.075	180.409	3.10414	40.6907	164.412	-10.7187	21.3804	152.757	-14.482	4.65261	139.04	-18.2398	-10.9507	189.041	10.5127	-28.2924	180.174	7.10085	-46.7554	177.357	-0.301584	-71.5457	208.458	6.1599	-35.4495	208.69	-1.97062	-59.9587	207.41	-7.40761	-79.9549	228.367	-3.92352	-24.2215	228.015	-9.14066	-46.0739	227.785	-14.3059	-67.8665	247.247	-15.6899	-11.0239	249.493	-19.2154	-28.3589	256.645	-18.4924	-44.342	228.039	7.04991	18.9955	233.84	9.92403	40.3683	211.01	19.7098	30.6586	
10	0.0833333	183.981	4.58594	37.2944	163.152	-7.16669	19.053	150.612	-12.6646	2.50598	140.767	-16.6747	-13.9029	188.505	15.1438	-24.1792	180.559	10.3721	-50.798	181.248	3.85696	-69.6543	211.891	7.72056	-34.391	212.647	1.83527	-56.9926	209.416	-7.76354	-80.5154	230.652	-2.39993	-28.16	229.867	-7.29728	-47.7209	227.581	-13.7068	-68.4276	247.763	-15.1651	-11.9408	249.075	-17.8667	-29.6522	257.498	-18.9127	-49.2403	229.758	8.73369	20.6653	234.49	12.4486	44.5355	210.668	19.0242	31.4989	
11	0.0916667	183.818	5.00014	41.805	170.219	-6.38521	19.9402	153.762	-10.3568	-1.88264	140.714	-13.966	-16.029	188.001	18.6705	-25.6265	184.092	14.1606	-49.8271	178.784	6.6904	-71.3109	210.912	12.2197	-30.5564	211.545	5.01333	-58.4702	205.883	-4.65576	-80.9298	230.778	0.824545	-27.3429	230.363	-6.14263	-47.864	223.843	-14.2447	-70.2305	244.92	-10.3903	-16.4845	250.77	-16.3791	-33.4021	256.251	-20.2908	-49.6681	233.294	9.87405	16.0543	235.084	12.1079	43.6896	208.482	22.1055	28.6889	
12	0.1	183.055	7.62067	41.5989	170.684	-4.48781	19.7986	157.941	-8.79703	2.69651	145.453	-11.0893	-12.7787	188.837	23.9629	-26.0957	185.191	18.2431	-47.9777	176.839	13.0812	-65.2559	211.825	16.3431	-34.105	212.267	5.41357	-59.3226	206.161	-6.21135	-78.8969	230.006	3.80453	-27.7271	229.839	-5.73739	-50.8075	219.087	-12.9835	-68.8182	247.662	-9.00074	-15.1193	247.888	-13.4798	-32.8946	249.695	-18.7829	-51.7699	234.06	13.7742	18.9719	236.213	11.952	44.2306	211.97	25.5678	34.1794	
13	0.108333	188.391	8.94106	39.9324	170.77	-2.664	19.9521	160.607	-5.05085	1.15327	147.671	-8.81218	-12.0152	193.963	25.2541	-21.6545	187.053	22.0305	-45.8941	176.863	15.2419	-68.4648	217.847	17.0352	-28.1692	212.787	9.82206	-54.7948	202.894	-8.72487	-77.5188	232.83	4.61188	-27.2995	223.901	-0.671652	-47.1126	217.723	-13.164	-63.4792	247.995	-8.80811	-10.7281	247.002	-14.5424	-34.0631	243.461	-17.8656	-49.7336	235.018	12.913	23.6663	238.176	12.2096	44.7857	213.65	27.0543	36.4067	
14	0.116667	187.579	11.0267	40.9743	168.63	0.139883	22.6918	160.613	-2.05376	1.55869	147.905	-4.25804	-18.3023	193.043	31.0294	-22.9237	187.113	25.1726	-46.3097	176.457	20.068	-63.872	214.395	20.8586	-28.2484	212.659	11.4637	-53.1641	198.167	-8.55793	-72.1463	233.812	5.89607	-24.5798	224.176	-2.01554	-49.6451	209.351	-16.2004	-62.345	245.875	-7.38352	-10.4916	248.112	-13.4437	-31.4132	237.305	-21.1872	-52.771	238.961	11.0198	23.007	238.201	12.5969	48.2667	215.62	26.1505	34.0479	
15	0.125	187.49	14.439	41.4704	171.897	2.57361	21.6487	160.546	0.753761	2.3241	151.478	-2.18956	-15.3083	194.548	34.788	-20.2479	185.399	30.394	-44.1571	175.723	24.983	-62.408	216.354	23.0454	-29.3604	206.365	13.6692	-54.4735	193.697	-5.76705	-67.0196	230.718	10.9943	-24.3355	227.721	0.0362048	-46.2572	208.214	-16.6407	-57.7158	246.862	-5.73703	-10.8532	245.114	-11.8497	-32.408	230.991	-20.3669	-49.8647	242.102	11.6252	24.9069	243.392	11.2298	46.6637	218.386	26.4049	38.7793	
16	0.133333	192.371	14.7476	42.8586	171.52	6.28278	21.3311	163.974	4.29122	-1.43961	152.22	1.10504	-17.7798	196.675	37.94	-19.8756	186.324	35.5081	-41.0588	178.99	27.0073	-63.4871	218.14	26.8602	-25.0403	207.801	17.231	-51.4259	195.021	-7.86129	-60.8524	232.362	11.7815	-19.4285	222.02	1.31893	-46.2006	201.872	-15.3337	-51.4251	247.439	-5.10497	-8.39791	240.062	-10.062	-34.4961	222.741	-19.8214	-46.7401	242.107	12.9116	26.2637	244.984	10.2175	50.7154	221.687	26.39	40.4589	
17	0.141667	191.469	19.6527	42.0592	175.505	9.1408	18.3183	162.104	7.8269	2.31815	153.087	5.9474	-14.6684	201.258	40.532	-19.9114	191.14	38.5085	-41.3547	180.594	31.9222	-59.6428	221.155	26.9904	-28.0346	207.417	15.3038	-52.0531	187.562	-5.30655	-54.0811	232.416	14.8483	-22.6422	220.295	0.116458	-45.9707	199.545	-11.2545	-44.3815	245.899	-1.69082	-12.6788	238.046	-9.14065	-35.0313	221.18	-20.5648	-44.4887	244.494	12.6554	25.7288	245.862	9.60178	52.5007	221.693	29.6774	41.2195	
18	0.15	190.706	22.1557	47.1078	174.943	13.6803	19.8175	161.903	12.0264	3.74628	151.816	11.2573	-15.7922	200.839	45.0538	-14.9919	193.022	43.3067	-37.4204	181.857	35.0818	-61.1064	220.085	31.9267	-27.6056	210.14	19.1465	-48.9675	188.751	-7.13697	-46.5492	236.368	12.569	-20.046	221.005	5.28988	-43.0838	197.126	-10.6877	-37.1067	245.774	-1.37589	-9.23396	235.185	-6.32745	-34.8068	217.849	-16.7449	-38.6495	241.786	16.2782	25.0243	242.529	10.4843	50.5489	226.083	30.2603	40.9123	
19	0.158333	192.913	24.5812	45.1095	178.322	16.7684	19.9976	166.683	15.5596	4.38952	154.286	15.4318	-15.359	203.65	45.7909	-11.8564	193.191	46.5634	-36.4478	180.109	41.5702	-54.9017	224.428	29.6156	-27.2013	207.55	18.5545	-47.7506	185.571	-3.89426	-39.4076	234.661	14.6539	-24.1685	215.573	6.51967	-41.2399	194.628	-9.85347	-28.4786	243.644	-0.379577	-8.8521	235.135	-5.42244	-32.9274	208.267	-11.97	-33.5306	242.785	17.0421	23.651	246.176	10.5545	48.172	228.432	29.5936	43.4551	
20	0.166667	196.229	23.9985	44.0705	177.747	17.8179	25.2268	161.735	19.036	5.47325	157.479	17.4973	-14.6131	206.975	46.0946	-14.0976	192.501	49.3105	-34.7566	179.666	42.9098	-53.8815	222.528	34.0977	-21.8113	207.959	22.3777	-46.5759	182.562	0.355881	-32.7534	233.163	16.8517	-23.1161	212.34	6.1555	-38.9445	197.165	-9.69038	-26.0261	246.211	-1.92356	-12.262	233.837	-6.7043	-32.126	208.125	-15.068	-28.8605	247.498	12.587	27.6784	248.787	8.82282	51.2375	225.572	33.8938	40.119	
21	0.175	194.576	26.7395	45.1206	177.837	18.8318	21.753	161.123	20.7827	5.00807	153.223	18.6874	-10.4397	204.433	49.995	-15.4025	193.407	51.9018	-32.5772	177.026	42.6837	-55.8325	221.892	34.8374	-24.185	200.687	23.1983	-43.869	183.826	1.20477	-28.132	233.487	16.3856	-24.5189	214.48	6.74999	-37.3673	196.125	-8.27127	-21.3152	244.48	1.111	-15.0776	228.235	-3.34256	-31.1468	205.185	-10.7769	-23.7074	243.723	17.758	29.4411	246.439	9.94922	51.5508	229.53	31.6952	43.5222	
22	0.183333	195.733	27.8196	45.9954	178.114	20.1392	25.9582	163.387	23.7067	3.37076	153.231	21.6737	-13.1625	204.54	53.1302	-13.7441	192.173	51.234	-34.9067	179.32	43.368	-53.2651	223.295	33.2142	-21.0766	203.47	21.4304	-41.9822	184.341	2.1425	-20.6613	233.678	16.1951	-20.2978	211.343	7.62912	-36.234	195.457	-7.75054	-16.8493	241.409	4.60379	-14.4722	227.867	-4.65644	-30.8725	202.167	-6.72064	-20.3229	244.554	20.0844	25.0708	244.625	10.8652	53.9654	228.529	33.6936	41.0092	
23	0.191667	194.271	29.5262	49.3309	176.903	22.8921	25.7115	165.829	23.7621	7.64542	150.352	24.7962	-10.5158	208.396	52.3642	-10.0278	191.675	55.2153	-33.2178	180.659	44.9915	-51.0551	220.35	37.6639	-19.4318	200.862	23.1503	-39.9377	184.146	5.13452	-20.1147	230.116	18.0289	-21.3933	207.437	4.92763	-34.454	192.582	-2.13494	-9.64548	241.451	4.16711	-14.6168	226.945	0.834335	-30.4902	202.994	-7.64532	-16.9828	244.457	17.7824	24.1034	247.072	11.2333	53.4921	229.491	33.7772	45.7571	
